<svg xmlns="http://www.w3.org/2000/svg" width="95" height="31" viewBox="0 0 95 31">
    <g fill="none" fill-rule="evenodd">
        <g fill="#FFF">
            <path d="M15.79 17.243L6.946 30.791H0V0h6.947v18.475L15.79 4.927l8.843 13.548V0h6.947v30.791h-6.947zM48.632 13.548L57.474 0h6.947v30.791h-6.947V12.316l-8.842 13.549-8.843-13.549v18.475h-6.947V0h6.947z"/>
        </g>
        <path fill="#FFF" d="M92.855 4.724L88.18 9.307a9.25 9.25 0 0 0-6.39-2.533c-5.058 0-9.158 3.998-9.158 8.93 0 4.931 4.1 8.69 9.157 8.69 1.943 0 3.356-.7 4.838-1.706l4.18 5.126a15.988 15.988 0 0 1-9.333 2.977c-8.72 0-15.79-6.893-15.79-15.395C65.684 6.893 72.754 0 81.474 0c4.47 0 8.508 1.812 11.38 4.724z"/>
        <g fill="#22E8CC" fill-rule="nonzero">
            <path d="M88.343 21.143l.93-.857 5.046 5.891c.752.879.632 2.217-.269 2.99-.912.777-2.257.688-3.012-.195l-4.933-5.764.959-.822 4.933 5.764a.887.887 0 0 0 1.25.083.876.876 0 0 0 .113-1.234l-5.017-5.856zm.93-.857l5.046 5.891c.752.879.632 2.217-.269 2.99-.912.777-2.257.688-3.012-.195l-4.933-5.764.959-.822 4.933 5.764a.887.887 0 0 0 1.25.083.876.876 0 0 0 .113-1.234l-5.017-5.856.93-.857z"/>
            <path d="M81.474 23.401c4.534 0 8.21-3.584 8.21-8.005 0-4.422-3.676-8.006-8.21-8.006-4.535 0-8.21 3.584-8.21 8.006 0 4.421 3.675 8.005 8.21 8.005zm0 1.232c-5.232 0-9.474-4.136-9.474-9.237 0-5.102 4.242-9.238 9.474-9.238s9.473 4.136 9.473 9.238c0 5.101-4.241 9.237-9.473 9.237z"/>
            <path d="M81.474 20.938c3.139 0 5.684-2.481 5.684-5.542s-2.545-5.543-5.684-5.543c-3.14 0-5.685 2.482-5.685 5.543 0 3.06 2.545 5.542 5.685 5.542zm0 1.232c-3.837 0-6.948-3.033-6.948-6.774 0-3.742 3.11-6.774 6.948-6.774 3.837 0 6.947 3.032 6.947 6.774 0 3.74-3.11 6.774-6.947 6.774z"/>
        </g>
    </g>
</svg>
